<svg xmlns="http://www.w3.org/2000/svg" xmlns:svg="http://www.w3.org/2000/svg" id="svg8" width="128" height="128" version="1.1" viewBox="0 0 33.867 33.867"><metadata id="metadata5"/><g id="layer1"><rect style="fill:#333;stroke-width:.384516" id="rect842" width="9.486" height="29.832" x="12.19" y="2.008"/><path style="fill:#1a1a1a;stroke:none;stroke-width:.395255px;stroke-linecap:butt;stroke-linejoin:miter;stroke-opacity:1" id="path844-3" d="M 12.190271,2.0078249 V 0.42680297 h 3.162042 c 0.0064,1.57524823 1.581024,1.58102193 1.581024,1.58102193 0,0 1.563714,0.018357 1.581021,-1.58102193 h 3.162043 V 2.0078249"/><path style="fill:#ffd42a;fill-opacity:1;stroke:none;stroke-width:.395255px;stroke-linecap:butt;stroke-linejoin:miter;stroke-opacity:1" id="path861" d="m 15.747569,0.42680308 c -1.89e-4,1.19157632 1.185767,1.18576642 1.185767,1.18576642 0,0 1.190061,-0.00711 1.185768,-1.18576653 l 0.790509,1.1e-7 V 2.007825 h -3.5573 V 0.42680308 Z"/><path style="fill:#333;stroke:none;stroke-width:.395255px;stroke-linecap:butt;stroke-linejoin:miter;stroke-opacity:1" id="path844" d="M 12.190271,2.007825 V 0.42680308 h 3.162042 c 0.0064,1.57524822 1.581024,1.58102192 1.581024,1.58102192 0,0 1.563714,0.018357 1.581021,-1.58102192 h 3.162043 V 2.007825"/><path style="fill:#045;stroke:none;stroke-width:.403974px;stroke-linecap:butt;stroke-linejoin:miter;stroke-opacity:1" id="path863" d="m 12.39157,31.837056 v 0.79051 h 1.65155 c 0.0024,-0.396228 0.412888,-0.395255 0.412888,-0.395255 0,0 0.417639,10e-4 0.412888,0.395255 H 21.4751 v -0.79051 h -9.08353"/><path style="fill:#fd5;stroke:none;stroke-width:.403974px;stroke-linecap:butt;stroke-linejoin:miter;stroke-opacity:1" id="path865" d="m 12.39157,32.627566 v 0.790511 h 1.651551 v -0.790511 z"/><path style="fill:#fd5;stroke:none;stroke-width:.403974px;stroke-linecap:butt;stroke-linejoin:miter;stroke-opacity:1" id="path867" d="m 14.868896,32.627566 v 0.790511 H 21.4751 v -0.790511 h -6.606204"/><rect style="fill:#ecc535;fill-opacity:1;stroke:none;stroke-width:.40461" id="rect869" width=".413" height=".791" x="12.804" y="32.628"/><rect style="fill:#ecc535;fill-opacity:1;stroke:none;stroke-width:.40461" id="rect871" width=".413" height=".791" x="13.63" y="32.628"/><rect style="fill:#ecc535;fill-opacity:1;stroke:none;stroke-width:.40461" id="rect873" width=".413" height=".791" x="15.282" y="32.628"/><rect style="fill:#ecc535;fill-opacity:1;stroke:none;stroke-width:.40461" id="rect875" width=".413" height=".791" x="16.108" y="32.628"/><rect style="fill:#ecc535;fill-opacity:1;stroke:none;stroke-width:.40461" id="rect877" width=".413" height=".791" x="16.933" y="32.628"/><rect style="fill:#ecc535;fill-opacity:1;stroke:none;stroke-width:.40461" id="rect879" width=".413" height=".791" x="17.759" y="32.628"/><rect style="fill:#ecc535;fill-opacity:1;stroke:none;stroke-width:.40461" id="rect881" width=".413" height=".791" x="18.585" y="32.628"/><rect style="fill:#ecc535;fill-opacity:1;stroke:none;stroke-width:.40461" id="rect883" width=".413" height=".791" x="19.411" y="32.628"/><rect style="fill:#ecc535;fill-opacity:1;stroke:none;stroke-width:.40461" id="rect885" width=".413" height=".791" x="20.236" y="32.628"/><rect style="fill:#ecc535;fill-opacity:1;stroke:none;stroke-width:.40461" id="rect887" width=".413" height=".791" x="21.062" y="32.628"/><rect style="fill:#1a1a1a;stroke-width:.0691613" id="rect842-6" width="9.486" height=".965" x="12.19" y="30.874"/></g></svg>