<svg xmlns="http://www.w3.org/2000/svg" xmlns:svg="http://www.w3.org/2000/svg" id="svg1171" width="128" height="128" version="1.1" viewBox="0 0 33.867 33.867"><metadata id="metadata1168"/><g id="layer1"><path style="fill:#e59900;fill-opacity:1;stroke:none;stroke-width:.281279px;stroke-linecap:butt;stroke-linejoin:miter;stroke-opacity:1" id="path2526-3" d="M 2.6467596,30.747919 3.5962614,13.643538 a 1.0570518,1.0570518 136.58868 0 1 1.0554269,-0.998463 l 26.5692457,0 -1.004928,18.102844 a 1.0570518,1.0570518 136.58868 0 1 -1.055427,0.998463 l -25.5692463,0 A 0.94602742,0.94602742 46.588677 0 1 2.6467596,30.747919 Z"/><path style="fill:#c28100;fill-opacity:1;stroke:none;stroke-width:0" id="rect2522" width="27.517" height="20.799" x="2.646" y="10.418" d="M 2.6458333,10.418405 H 29.1625 a 1,1 45 0 1 1,1 l 0,18.798816 a 1,1 135 0 1 -1,1 H 3.6458333 a 1,1 45 0 1 -1,-1 z"/><path style="fill:#e0e0e0;fill-opacity:1;stroke:none;stroke-width:0" id="rect2528-4" width="6.35" height="4.178" x="5.318" y="10.856" d="m 5.8181205,10.855935 5.3499995,0 a 0.5,0.5 45 0 1 0.5,0.5 v 3.178412 a 0.5,0.5 135 0 1 -0.5,0.5 H 5.8181205 a 0.5,0.5 45 0 1 -0.5,-0.5 v -3.178412 a 0.5,0.5 135 0 1 0.5,-0.5 z"/><path style="fill:#c28200;fill-opacity:1;stroke:none;stroke-width:.442654;stroke-linecap:butt;stroke-linejoin:miter;stroke-miterlimit:4;stroke-dasharray:none;stroke-opacity:1" id="path863" d="m 2.6470786,8.6928076 -0.00124,1.7255964 14.1431779,1.666828 a 0.24632984,0.24632984 122.94913 0 0 0.240367,-0.370854 L 15.184364,8.6221837 A 0.88057528,0.88057528 29.588371 0 0 14.428168,8.1928077 H 3.1474381 A 0.50035958,0.50035958 135.0206 0 0 2.6470786,8.6928076 Z"/><path style="fill:#f9f9f9;fill-opacity:1;stroke:none;stroke-width:0" id="rect2538" width="26.458" height="19.642" x="3.44" y="10.68" d="M 4.4395833,10.679751 H 28.897917 a 1,1 45 0 1 1,1 v 17.642096 a 1,1 135 0 1 -1,1 H 4.4395833 a 1,1 45 0 1 -1,-1 V 11.679751 a 1,1 135 0 1 1,-1 z"/><path style="fill:#d7d7d7;fill-opacity:1;stroke:none;stroke-width:.358402;stroke-linecap:butt;stroke-linejoin:miter;stroke-miterlimit:4;stroke-dasharray:none;stroke-opacity:1" id="path863-3-7" d="m 28.525232,11.381763 -0.07617,1.180829 a 0.01333989,0.01333989 136.79898 0 1 -0.01329,0.01248 l -14.562493,0.02363 1.875639,-1.408986 a 1.4994076,1.4994076 161.52774 0 1 0.899769,-0.300574 l 11.408736,-0.0061 a 0.46853507,0.46853507 46.830205 0 1 0.467813,0.498697 z"/><path style="fill:#fb3;fill-opacity:1;stroke:none;stroke-width:.281278px;stroke-linecap:butt;stroke-linejoin:miter;stroke-opacity:1" id="path2526" d="M 2.6467596,30.218752 3.5962614,13.114371 A 1.0570518,1.0570518 136.58868 0 1 4.6516883,12.115908 H 31.220936 l -1.004928,18.102844 a 1.0570518,1.0570518 136.58868 0 1 -1.055427,0.998463 l -25.5692483,0 A 0.94602742,0.94602742 46.588677 0 1 2.6467596,30.218752 Z"/><path style="fill:#fb3;fill-opacity:1;stroke:none;stroke-width:.381943;stroke-linecap:butt;stroke-linejoin:miter;stroke-miterlimit:4;stroke-dasharray:none;stroke-opacity:1" id="path863-3" d="m 31.301792,10.690037 -0.08086,1.425871 -14.57498,0.02365 1.895026,-1.616699 a 1.3577262,1.3577262 159.74847 0 1 0.880382,-0.324816 l 11.408736,-0.0069 a 0.47216383,0.47216383 46.605456 0 1 0.471692,0.498896 z"/></g></svg>