<svg xmlns="http://www.w3.org/2000/svg" xmlns:svg="http://www.w3.org/2000/svg" id="SVGRoot" width="128" height="128" version="1.1" viewBox="0 0 128 128"><metadata id="metadata1413"/><g id="layer1"><path style="fill:#999;fill-opacity:1;stroke:none;stroke-width:1.65856px;stroke-linecap:butt;stroke-linejoin:miter;stroke-opacity:1" id="path1991" d="M 64,120 13.649576,106.01377 V 92.02754 L 64,106.01377 114.35043,92.02754 v 13.98623 z"/><path style="fill:#ccc;fill-opacity:1;stroke:none;stroke-width:1.65856px;stroke-linecap:butt;stroke-linejoin:miter;stroke-opacity:1" id="path1999" d="M 13.649576,92.02754 64,78.041311 114.35043,92.02754 64,106.01377 13.649576,92.02754"/><path style="fill:#b3b3b3;stroke:none;stroke-width:1.72065px;stroke-linecap:butt;stroke-linejoin:miter;stroke-opacity:1" id="path2005" d="m 62.601376,92.02754 c 0,0 -4.146417,-2.733242 -4.195868,-11.188982 0,-27.790216 -2.727321,-41.998378 -2.797246,-48.082386 0.03497,-2.202832 -1.398622,-14.801776 0,-16.934677 1.433591,-1.993038 2.797246,-2.116835 2.797246,-2.116835 2.727321,-1.433589 8.356769,-1.328694 11.188983,0 0,0 1.468547,0.0189 2.797245,2.116835 1.398624,2.132901 0.03497,14.701608 0.05431,16.904546 0.05497,6.258509 -2.824321,32.749555 -2.851554,48.112517 0.04946,8.35684 -4.195868,11.188982 -4.195868,11.188982 z"/><ellipse style="fill:#a00;fill-opacity:1;stroke:none;stroke-width:2.33647" id="path2007-3" cx="38.809" cy="92.313" rx="8.376" ry="3.911"/><ellipse style="fill:red;fill-opacity:1;stroke:none;stroke-width:2.33647" id="path2007" cx="38.809" cy="90.358" rx="8.376" ry="3.911"/></g></svg>