<svg xmlns="http://www.w3.org/2000/svg" xmlns:svg="http://www.w3.org/2000/svg" id="svg78" width="1250" height="300" version="1.1" viewBox="0 0 1250 300"><metadata id="metadata84"/><g id="g86"><path style="fill:#ffd400;fill-opacity:1;stroke-width:.83557" id="path100" d="m 202.74083,281.68274 c -11.60964,5.33566 -18.10682,7.1411 -34.06523,9.46606 -36.46999,5.31328 -51.06729,4.30685 -69.149923,-4.76756 -3.943748,-1.9791 -14.158229,-7.94979 -22.69882,-13.2682 -18.39874,-11.45728 -25.047036,-14.49112 -36.812505,-16.79885 -9.162016,-1.79705 -19.199283,-5.55672 -20.412173,-7.6458 -1.066318,-1.83665 1.246129,-6.04416 8.822086,-16.05178 8.116999,-10.72232 10.903409,-15.3646 11.088141,-18.47329 0.07462,-1.25577 -0.575118,-10.10765 -1.443856,-19.67088 C 34.166504,151.5183 37.980709,125.93365 51.645825,103.39968 65.266693,80.938666 81.154427,66.510616 113.83096,46.927794 140.17428,31.140417 160.65614,21.827415 186.55129,13.862203 238.28151,-2.049761 273.44213,1.4387794 327.77912,27.87445 l 12.87594,6.264316 6.93523,-0.902613 c 8.38305,-1.091038 17.58981,-1.293153 22.04361,-0.483928 4.09773,0.744535 6.0568,3.708422 5.00548,7.572778 -0.40221,1.478417 -2.68808,5.622074 -5.07972,9.20813 -5.53615,8.300976 -9.45863,16.821759 -10.38689,22.563391 -0.40028,2.475889 -1.31866,10.471642 -2.04082,17.768327 -2.82993,28.592989 -7.93891,53.854409 -14.1923,70.174079 -11.13038,29.0473 -31.59355,52.30308 -71.78207,81.57823 -8.71205,6.34624 -58.54242,35.52745 -68.41675,40.06558 z"/><path style="fill:#ffd400;fill-opacity:1;stroke-width:.306224" id="path112"/><text id="text19" x="401.03" y="215.069" xml:space="preserve" style="font-size:192px;line-height:1.25;font-family:Cairo;-inkscape-font-specification:Cairo;fill:#000"><tspan style="font-size:192px;fill:#000" id="tspan17" x="401.03" y="215.069">Lemon OS</tspan></text></g></svg>