<svg xmlns="http://www.w3.org/2000/svg" xmlns:svg="http://www.w3.org/2000/svg" id="svg1171" width="128" height="128" version="1.1" viewBox="0 0 33.867 33.867"><metadata id="metadata1168"/><g id="layer1"><path style="fill:#ececec;stroke:none;stroke-width:.264583px;stroke-linecap:butt;stroke-linejoin:miter;stroke-opacity:1" id="path9" d="M 4.2333332,31.749999 V 2.116666 H 23.283333 l 6.35,6.35 V 31.749999 H 4.2333332"/><rect style="fill:#5fc7df;fill-opacity:1;stroke:none;stroke-width:.221187" id="rect863" width="14.793" height="1.058" x="6.35" y="8.467"/><path style="fill:#999;stroke:none;stroke-width:.275387px;stroke-linecap:butt;stroke-linejoin:miter;stroke-opacity:1" id="path834-4" d="m 23.283333,2.1166666 v 5.8791666 a 1,1 45 0 0 1,1 h 5.35 V 8.4666665 c -1.561472,-1.1449205 -6.35,-6.3499999 -6.35,-6.3499999 z"/><path style="fill:#fff;stroke:none;stroke-width:.264583px;stroke-linecap:butt;stroke-linejoin:miter;stroke-opacity:1" id="path834" d="m 23.283333,2.1166666 v 5.35 a 1,1 45 0 0 1,1 h 5.35 z"/><rect style="fill:#999;stroke:none;stroke-width:.264583" id="rect859" width="25.4" height=".529" x="4.233" y="31.221"/><rect style="fill:#5fc7df;fill-opacity:1;stroke:none;stroke-width:.264583" id="rect863-5" width="21.167" height="1.058" x="6.35" y="10.583"/><rect style="fill:#5fc7df;fill-opacity:1;stroke:none;stroke-width:.264583" id="rect863-7" width="21.167" height="1.058" x="6.35" y="12.7"/><rect style="fill:#5fc7df;fill-opacity:1;stroke:none;stroke-width:.264583" id="rect863-9" width="21.167" height="1.058" x="6.35" y="14.817"/><rect style="fill:#5fc7df;fill-opacity:1;stroke:none;stroke-width:.264583" id="rect863-2" width="21.167" height="1.058" x="6.35" y="16.933"/><rect style="fill:#5fc7df;fill-opacity:1;stroke:none;stroke-width:.23699" id="rect863-2-4" width="16.982" height="1.058" x="10.535" y="19.05"/><rect style="fill:#5fc7df;fill-opacity:1;stroke:none;stroke-width:.264583" id="rect863-2-1" width="21.167" height="1.058" x="6.35" y="21.167"/><rect style="fill:#5fc7df;fill-opacity:1;stroke:none;stroke-width:.264583" id="rect863-2-0" width="21.167" height="1.058" x="6.35" y="23.283"/><rect style="fill:#5fc7df;fill-opacity:1;stroke:none;stroke-width:.264583" id="rect863-2-5" width="21.167" height="1.058" x="6.35" y="25.4"/><rect style="fill:#5fc7df;fill-opacity:1;stroke:none;stroke-width:.264583" id="rect863-2-04" width="21.167" height="1.058" x="6.35" y="27.517"/></g></svg>